<svg id="Layer_1" data-name="Layer 1" xmlns="http://www.w3.org/2000/svg" width="253.9" height="179.21" viewBox="0 0 253.9 179.21">
  <title>SB_Logo_Vertical_WT_RGB</title>
  <g>
    <path d="M146,115.56H108l-6.75,20.79h51.55Zm102,20.79-20-61.43L241,35.24,193,0.4,159.26,24.94H94.7L60.93,0.4,13,35.24,25.87,74.92l-20,61.43h63L64,121.28l63-45.76,63,45.76-4.89,15.07h63ZM108,115.56l-6.75,20.79h51.55L146,115.56H108Zm38.05,0H108l-6.75,20.79h51.55Z" transform="translate(-1.05 -0.4)" fill="#fff"/>
    <g>
      <path d="M17.86,156.7s-5.4-.62-7.64-0.62c-3.24,0-4.9,1.16-4.9,3.43,0,2.47,1.39,3,5.9,4.28,5.55,1.54,7.56,3,7.56,7.52,0,5.78-3.62,8.29-8.83,8.29a56.2,56.2,0,0,1-8.64-1l0.42-3.43s5.21,0.69,7.94.69c3.28,0,4.78-1.47,4.78-4.24,0-2.24-1.2-3-5.24-4C3.52,166.14,1,164.41,1,159.82c0-5.32,3.51-7.52,8.79-7.52a58.55,58.55,0,0,1,8.37.92Z" transform="translate(-1.05 -0.4)" fill="#fff"/>
      <path d="M29.06,152.76H36.5l5.9,20.63,5.9-20.63h7.48v26.42H51.46V156.35H51.24l-6.6,21.75H40.16l-6.6-21.75H33.34v22.83H29.06V152.76Z" transform="translate(-1.05 -0.4)" fill="#fff"/>
      <path d="M122.08,152.76h19.28v3.82h-7.44v22.6H129.6v-22.6h-7.52v-3.82Z" transform="translate(-1.05 -0.4)" fill="#fff"/>
      <path d="M160,152.76c5.24,0,8.06,2,8.06,6.86,0,3.2-1,4.78-3.12,5.94,2.28,0.89,3.78,2.51,3.78,6.13,0,5.4-3.28,7.48-8.41,7.48H150V152.76h10Zm-5.75,3.7V164h5.67c2.62,0,3.78-1.31,3.78-3.9s-1.31-3.66-3.93-3.66h-5.52Zm0,11.18v7.83h5.82c2.66,0,4.24-.85,4.24-4,0-3-2.24-3.82-4.32-3.82h-5.75Z" transform="translate(-1.05 -0.4)" fill="#fff"/>
      <path d="M179.32,152.76H196v3.74H183.6V164h10.07v3.66H183.6v7.75H196v3.78H179.32V152.76Z" transform="translate(-1.05 -0.4)" fill="#fff"/>
      <path d="M211.33,152.76h8.52l6.56,26.42h-4.32l-2-7.75H211l-2,7.75h-4.28Zm0.57,14.89h7.41l-2.73-11.3h-1.93Z" transform="translate(-1.05 -0.4)" fill="#fff"/>
      <path d="M240.22,171.35v7.83h-4.28V152.76h10c5.82,0,8.95,3.34,8.95,9.2,0,3.74-1.5,7.12-4.32,8.43l4.36,8.79h-4.71l-3.82-7.83h-6.21ZM246,156.46h-5.75v11.18H246c3.24,0,4.47-2.91,4.47-5.65C250.51,159,249,156.46,246,156.46Z" transform="translate(-1.05 -0.4)" fill="#fff"/>
      <path d="M71.64,152.76h8.52l6.56,26.42H82.39l-2-7.75h-9.1l-2,7.75H65.12Zm0.57,14.89h7.41l-2.73-11.3H75Z" transform="translate(-1.05 -0.4)" fill="#fff"/>
      <path d="M100.52,171.35v7.83H96.24V152.76h10c5.82,0,8.95,3.34,8.95,9.2,0,3.74-1.5,7.12-4.32,8.43l4.36,8.79h-4.71l-3.82-7.83h-6.21Zm5.75-14.89h-5.75v11.18h5.82c3.24,0,4.47-2.91,4.47-5.65C110.82,159,109.35,156.46,106.27,156.46Z" transform="translate(-1.05 -0.4)" fill="#fff"/>
    </g>
  </g>
</svg>
